<?xml version="1.0" standalone="no"?>
<!DOCTYPE svg PUBLIC "-//W3C//DTD SVG 20010904//EN"
 "http://www.w3.org/TR/2001/REC-SVG-20010904/DTD/svg10.dtd">
<svg version="1.0" xmlns="http://www.w3.org/2000/svg"
 width="488.000000pt" height="488.000000pt" viewBox="0 0 488.000000 488.000000"
 preserveAspectRatio="xMidYMid meet">
<metadata>
Created by potrace 1.14, written by Peter Selinger 2001-2017
</metadata>
<g transform="translate(0.000000,488.000000) scale(0.100000,-0.100000)"
fill="#000000" stroke="none">
<path d="M2150 4795 c-420 -52 -864 -236 -1222 -506 -117 -88 -351 -325 -440
-445 -234 -316 -369 -647 -419 -1028 -17 -133 -6 -770 15 -896 34 -194 86
-343 207 -581 163 -323 393 -597 679 -811 512 -382 1184 -561 1775 -472 371
56 717 186 1010 379 358 236 611 526 814 932 179 358 220 567 221 1104 0 238
-11 365 -46 534 -213 1024 -1229 1811 -2327 1804 -89 -1 -209 -7 -267 -14z
m557 -70 c518 -66 995 -295 1371 -660 385 -372 601 -828 644 -1357 18 -230
-16 -523 -93 -781 -99 -335 -309 -700 -554 -965 -170 -184 -463 -381 -736
-496 -331 -138 -636 -195 -989 -183 -287 10 -497 53 -760 154 -200 77 -499
245 -549 309 -10 13 -21 20 -25 17 -3 -3 -6 -1 -6 6 0 8 7 11 15 7 9 -3 18 1
21 9 5 11 22 3 77 -34 611 -409 1353 -511 2032 -281 254 86 512 227 706 386
115 94 280 274 371 404 96 138 231 398 272 524 100 306 115 789 36 1151 -58
263 -186 542 -352 765 -330 444 -850 758 -1413 855 -351 60 -673 32 -1043 -91
-753 -251 -1291 -845 -1442 -1593 -55 -276 -55 -616 1 -896 58 -289 211 -588
440 -861 65 -78 77 -97 83 -139 l6 -50 -61 60 c-117 115 -297 371 -387 551
-119 239 -210 548 -243 828 -18 153 -7 413 25 578 154 807 787 1466 1646 1713
112 32 298 68 405 78 110 10 394 6 502 -8z m-43 -205 c505 -68 935 -275 1289
-619 267 -260 436 -555 526 -916 71 -288 79 -691 20 -979 -89 -427 -381 -877
-744 -1146 -151 -112 -325 -216 -348 -207 -7 3 -14 18 -15 34 -2 26 3 31 48
51 l50 22 0 104 0 103 40 27 c23 15 59 43 80 62 l39 35 47 -60 c37 -48 50 -58
61 -50 7 6 13 15 13 20 0 12 -102 139 -112 139 -5 0 -43 -29 -85 -65 -42 -36
-80 -65 -85 -65 -13 0 -10 164 4 178 7 7 40 12 78 12 66 0 67 -1 99 -40 l32
-40 106 0 106 0 -7 59 c-5 39 -3 60 4 63 8 2 8 32 2 103 -7 78 -6 106 5 127
17 34 16 38 -2 38 -8 0 -15 9 -15 20 0 19 4 20 66 14 l66 -7 -3 51 c-2 28 0
55 4 58 4 4 7 24 7 44 l0 37 105 -54 104 -54 26 51 c34 68 87 211 80 218 -11
12 -224 89 -229 84 -4 -3 -6 -13 -6 -22 0 -12 26 -26 88 -49 48 -19 91 -37 96
-42 6 -5 -1 -28 -16 -56 -14 -27 -32 -67 -39 -90 -7 -24 -17 -43 -23 -43 -5 0
-44 15 -86 34 -41 19 -82 37 -91 39 -33 11 -42 258 -13 372 9 39 20 72 23 75
3 3 6 19 7 35 1 17 7 84 13 150 13 119 11 187 -11 381 l-11 102 39 88 c37 86
38 93 39 204 0 140 -21 221 -99 386 -69 144 -161 278 -257 375 -86 86 -154
124 -241 134 -75 9 -118 -6 -184 -66 -30 -27 -61 -49 -69 -49 -9 0 -32 11 -53
24 -75 47 -205 108 -294 137 -50 16 -104 41 -122 56 -40 33 -110 64 -222 98
-200 60 -361 117 -412 146 -70 40 -101 36 -125 -14 -11 -22 -19 -62 -20 -96
l-2 -57 -94 -70 c-111 -81 -142 -96 -246 -119 -82 -18 -84 -21 -60 -77 5 -12
-2 -21 -25 -33 -41 -21 -55 -15 -119 50 -63 63 -108 80 -186 71 -136 -18 -287
-151 -424 -374 -28 -46 -51 -85 -51 -88 0 -2 -18 -41 -39 -86 -65 -138 -76
-185 -76 -343 0 -138 0 -141 34 -213 l34 -72 -13 -108 c-8 -59 -13 -177 -12
-263 2 -142 9 -208 42 -363 14 -67 23 -270 15 -331 l-7 -50 -95 -45 c-52 -25
-99 -46 -103 -48 -5 -2 -12 14 -16 35 -3 21 -19 65 -35 97 -16 33 -26 63 -22
66 5 4 48 22 96 40 48 18 90 37 94 43 8 14 -19 27 -42 21 -39 -11 -190 -67
-198 -74 -4 -3 -1 -25 7 -47 23 -65 99 -224 105 -221 3 2 52 26 107 55 l102
52 6 -31 c8 -43 7 -578 -2 -577 -26 2 -199 245 -276 388 -167 305 -232 566
-230 921 3 472 103 826 329 1166 231 348 610 639 1040 799 120 45 328 99 445
115 47 7 105 16 130 20 84 14 266 10 414 -10z m-492 -211 c65 -33 152 -64 322
-114 87 -25 181 -57 208 -71 99 -50 166 -133 183 -227 l7 -37 -48 7 c-31 4
-62 17 -84 34 -90 72 -201 91 -363 65 -54 -9 -139 -32 -188 -52 -184 -71 -278
-80 -370 -34 -91 46 -131 90 -81 90 31 0 144 60 206 109 93 73 96 75 161 52
30 -11 55 -17 55 -15 0 3 -11 20 -24 37 -38 52 -61 149 -39 170 9 10 9 10 55
-14z m925 -383 c38 -18 78 -42 90 -52 21 -18 22 -22 11 -62 -8 -32 -8 -53 0
-79 7 -24 8 -42 2 -54 -16 -29 -11 -92 10 -126 11 -18 23 -33 28 -33 5 0 26
-18 48 -40 54 -57 113 -90 172 -97 48 -5 50 -7 56 -42 9 -58 7 -71 -12 -71
-42 0 -140 -33 -180 -60 -43 -30 -44 -30 -78 -14 -19 9 -49 20 -67 24 -18 4
-31 11 -30 16 1 5 9 27 17 49 37 100 9 205 -68 250 l-46 27 6 51 c8 68 -9 129
-49 174 -23 26 -36 56 -48 107 -9 39 -19 79 -24 89 -7 16 -4 16 44 -2 28 -12
81 -36 118 -55z m-1695 33 c12 -6 57 -47 100 -90 87 -88 95 -112 51 -156 -25
-26 -26 -26 -34 -7 -10 26 -177 190 -185 181 -3 -3 18 -32 48 -64 68 -72 88
-102 88 -129 0 -24 -38 -77 -50 -69 -4 3 -11 -3 -15 -13 -5 -14 -9 -12 -20 13
-15 36 -141 172 -150 163 -4 -3 15 -32 41 -64 54 -68 73 -106 66 -140 -6 -34
-48 -64 -88 -64 -36 0 -47 10 -38 34 6 15 9 15 30 1 29 -19 41 -19 60 0 14 13
12 15 -18 17 -75 3 -88 6 -112 22 -14 9 -28 16 -32 16 -9 0 7 -102 19 -122 17
-27 -5 -45 -32 -26 -12 8 -18 18 -14 21 3 4 1 7 -6 7 -7 0 -9 4 -6 10 3 5 0 7
-8 4 -8 -3 -17 2 -20 10 -4 9 -11 16 -17 16 -23 0 33 -81 89 -130 33 -29 62
-62 64 -74 3 -14 5 -10 6 12 1 21 6 32 16 32 24 0 21 -112 -4 -134 -15 -13
-20 -14 -24 -4 -3 7 -6 4 -6 -8 -1 -11 -12 -35 -26 -54 -14 -19 -25 -35 -25
-37 0 -2 19 9 41 24 86 56 235 40 320 -35 l42 -38 50 25 c47 23 167 42 167 27
0 -4 -4 -15 -10 -25 -18 -35 -27 -129 -18 -202 17 -141 112 -287 309 -472
l101 -96 -44 -12 c-56 -15 -191 -6 -243 16 -69 30 -135 85 -186 158 -27 39
-49 74 -49 79 0 16 -61 132 -73 140 -7 4 -65 8 -129 8 -64 0 -141 5 -170 11
-72 15 -305 129 -292 142 3 3 -2 4 -13 2 -10 -2 -22 -4 -26 -4 -5 -1 -5 -6 -1
-12 4 -8 9 -7 16 2 7 10 8 8 5 -9 -6 -26 46 -97 112 -153 98 -84 251 -130 376
-112 73 10 105 6 65 -9 -44 -16 -164 -21 -225 -8 -97 19 -211 80 -280 149 -81
80 -179 246 -201 337 -21 91 -13 190 27 307 60 182 199 405 308 496 103 87
212 122 273 90z m2203 -18 c152 -71 325 -304 415 -556 43 -119 53 -270 23
-355 -29 -87 -112 -218 -183 -291 -110 -113 -289 -181 -428 -165 -149 18 -133
31 35 31 l138 0 79 39 c82 40 182 128 170 148 -4 6 -2 8 4 4 6 -4 21 14 36 43
24 50 24 70 -1 50 -7 -7 -27 -19 -43 -28 -16 -9 -59 -33 -94 -53 -106 -61
-179 -78 -325 -78 -94 0 -132 -4 -147 -14 -12 -8 -44 -62 -73 -120 -91 -184
-198 -265 -356 -273 -52 -3 -93 0 -118 9 l-38 14 73 66 c134 120 267 293 302
394 28 81 41 190 29 247 -6 29 -15 61 -19 71 -7 18 -3 19 62 14 49 -4 83 -12
111 -29 l42 -24 33 32 c97 94 252 103 347 19 24 -21 24 -20 -4 29 -15 28 -38
59 -51 70 -18 15 -25 35 -30 78 -6 54 -5 57 15 57 19 0 21 -5 21 -59 0 -33 5
-63 10 -66 6 -4 10 19 10 62 0 67 1 68 33 84 17 9 47 35 65 58 34 46 43 74 14
48 -11 -11 -22 -13 -32 -7 -9 5 -19 5 -27 -2 -9 -7 -13 -7 -13 1 0 6 7 14 15
17 8 4 12 10 9 15 -3 5 -10 7 -15 4 -13 -8 -11 19 3 50 6 14 9 27 6 30 -9 10
-77 -25 -88 -45 -9 -16 -15 -18 -36 -10 -27 11 -48 5 -39 -11 10 -15 -1 -10
-15 7 -8 8 -9 14 -4 13 21 -4 25 2 10 16 -8 8 -19 15 -25 15 -26 0 -7 51 45
118 31 41 53 76 50 79 -6 7 -76 -63 -123 -122 l-32 -40 -37 37 c-47 47 -43 65
37 153 33 37 58 69 56 72 -11 10 -61 -33 -125 -106 -36 -42 -71 -76 -76 -76
-17 0 -38 54 -32 79 3 12 43 59 89 104 82 80 86 82 133 82 33 0 69 -9 109 -29z
m-935 -79 c163 -77 229 -196 246 -439 l7 -92 -52 6 -51 6 0 -31 c0 -35 -22
-52 -66 -52 -15 0 -67 19 -117 41 -94 44 -125 46 -185 16 -24 -11 -33 -11 -67
5 -57 25 -74 23 -179 -22 -51 -22 -103 -40 -115 -40 -39 0 -61 18 -61 52 l0
31 -55 -6 -54 -5 5 46 c25 203 46 289 89 353 26 41 62 54 285 110 63 16 135
35 160 44 65 21 134 14 210 -23z m-921 -32 l59 -60 -15 -31 c-12 -24 -14 -50
-10 -105 l5 -73 -44 -26 c-24 -14 -51 -39 -59 -55 -20 -38 -19 -146 1 -206 18
-53 19 -51 -59 -78 l-55 -19 -33 25 c-37 27 -119 58 -155 58 -43 0 -54 10 -54
50 0 59 8 70 49 70 48 1 117 33 155 73 17 18 47 42 67 55 19 12 41 33 47 47
14 30 16 104 3 124 -5 7 -5 30 0 52 7 29 5 49 -8 81 -11 26 -13 43 -6 45 5 2
19 10 29 18 10 8 20 15 22 15 1 0 29 -27 61 -60z m1152 -33 c55 -37 79 -81 79
-146 l-1 -56 -30 63 c-28 59 -46 83 -32 45 3 -10 3 -15 -1 -12 -4 4 -9 17 -11
30 -3 12 -21 40 -42 61 -32 33 -34 38 -17 38 12 0 36 -10 55 -23z m-946 -74
c-8 -16 -22 -46 -31 -68 -10 -24 -18 -35 -21 -26 -4 10 -10 5 -20 -15 -7 -16
-11 -21 -8 -11 2 9 0 17 -5 17 -12 0 -13 90 -2 106 10 15 31 22 69 23 32 1 32
1 18 -26z m-365 -94 c0 -36 -61 -105 -82 -93 -7 4 -10 3 -5 -1 4 -5 0 -17 -10
-27 -18 -20 -38 -25 -27 -6 4 7 3 8 -5 4 -6 -4 -9 -11 -6 -16 9 -14 -13 -22
-77 -27 -40 -3 -58 -1 -54 6 4 5 13 8 21 4 13 -4 20 7 16 29 0 4 10 3 23 -2
20 -7 23 -6 22 13 -1 15 22 38 82 84 45 35 87 63 92 63 6 0 10 -14 10 -31z
m1780 -39 c25 -20 56 -43 68 -49 l24 -13 -33 -23 -32 -24 -28 19 c-15 11 -39
34 -53 51 -14 17 -26 27 -26 22 -1 -18 -29 44 -30 65 0 22 0 22 33 6 17 -9 52
-33 77 -54z m-1519 -126 c19 -31 24 -81 11 -102 -7 -10 -14 -8 -34 8 -32 25
-41 25 -35 3 17 -63 17 -71 -3 -76 -11 -3 -18 -1 -14 4 3 5 1 9 -5 9 -5 0 -11
-6 -14 -12 -8 -23 -29 74 -23 106 8 40 32 75 60 86 29 12 37 8 57 -26z m1225
2 c30 -30 34 -40 34 -87 -1 -69 -19 -112 -48 -114 -18 -1 -22 4 -22 25 0 15 5
41 11 59 15 42 6 48 -27 22 -15 -11 -31 -21 -35 -21 -12 0 -11 97 1 105 6 3
10 15 10 26 0 30 38 23 76 -15z m655 10 c5 3 9 0 9 -6 0 -7 -7 -10 -15 -6 -8
3 -15 0 -15 -6 0 -6 -2 -9 -5 -6 -3 3 -2 13 2 24 4 11 8 13 11 6 2 -7 8 -10
13 -6z m-264 -12 c-3 -3 -12 -4 -19 -1 -8 3 -5 6 6 6 11 1 17 -2 13 -5z
m-1461 -220 c19 -66 50 -118 93 -157 44 -39 88 -52 156 -44 31 3 48 0 56 -9 6
-8 33 -20 59 -28 54 -16 112 -8 158 22 18 12 42 16 81 14 106 -6 186 63 228
194 18 57 27 63 71 40 59 -31 100 -101 122 -208 16 -79 -7 -170 -52 -212 -19
-16 -34 -24 -36 -17 -2 6 -10 11 -18 11 -7 0 -21 14 -30 32 l-16 31 -19 -54
c-46 -132 -131 -255 -228 -332 -40 -31 -81 -41 -65 -15 4 7 9 7 13 0 4 -6 11
-4 19 4 10 11 10 14 0 15 -28 3 -44 -4 -106 -47 -35 -24 -68 -44 -72 -44 -4 0
-34 21 -66 46 -54 41 -59 43 -62 25 -5 -29 -18 -26 -66 13 -112 92 -161 152
-221 275 -22 44 -43 81 -47 81 -3 0 -11 -12 -16 -27 -6 -16 -11 -22 -11 -15
-1 7 -5 11 -10 8 -4 -3 -23 8 -42 25 -19 17 -40 34 -48 39 -23 12 -26 117 -6
186 29 102 69 163 120 184 34 15 49 6 61 -36z m414 23 c19 0 54 4 78 8 38 7
51 3 122 -34 43 -22 93 -41 109 -41 17 0 31 -4 31 -9 0 -17 -61 -61 -101 -71
-50 -14 -153 3 -191 31 -34 24 -44 24 -98 -2 -61 -30 -183 -36 -229 -12 -19
10 -41 28 -49 41 -14 21 -13 22 19 22 19 0 69 18 114 41 69 34 86 39 120 33
22 -4 56 -7 75 -7z m43 -185 c35 -24 26 -32 -39 -32 -62 0 -76 13 -37 34 36
20 43 19 76 -2z m-1531 -429 c6 -13 17 -23 25 -23 7 0 13 -4 13 -8 0 -4 15
-16 33 -26 35 -21 67 -51 67 -63 -1 -4 -10 3 -21 16 -11 13 -22 21 -26 17 -8
-8 27 -46 52 -57 15 -6 16 -8 4 -8 -9 -1 -36 18 -60 41 -38 37 -43 40 -50 22
-8 -24 -1 -37 17 -30 17 7 18 -6 2 -22 -9 -9 -7 -13 5 -18 9 -3 24 -4 32 0 8
3 15 1 15 -4 0 -6 9 -10 21 -10 11 0 17 -4 14 -10 -4 -7 3 -7 20 0 36 14 42
12 19 -5 -18 -14 -17 -14 16 -16 19 -1 43 -2 53 -2 9 0 17 -3 17 -7 0 -14 -24
-18 -43 -8 -44 23 -143 -27 -171 -87 l-17 -36 -62 3 -62 3 -7 45 c-11 72 -9
328 2 335 6 3 10 20 10 36 l0 31 35 -44 c19 -24 40 -53 47 -65z m3065 46 c-3
-10 -1 -19 4 -19 10 0 12 -253 3 -324 l-7 -46 -61 5 c-37 3 -62 10 -65 17 -9
29 -92 97 -126 104 -19 3 -36 10 -36 15 -1 5 -2 15 -3 22 -1 6 -9 11 -19 11
-9 -1 -14 2 -11 8 3 5 11 7 17 5 7 -2 30 2 51 10 22 7 41 11 44 9 2 -3 -7 -8
-22 -12 -14 -3 -24 -10 -21 -14 3 -5 -5 -12 -17 -16 -22 -7 -22 -7 -3 -15 28
-11 43 -10 25 1 -11 7 -5 10 23 10 30 0 37 4 37 20 0 11 11 27 26 36 32 22 16
46 -17 26 -17 -11 -20 -11 -13 0 5 7 9 16 9 20 0 3 4 10 9 15 5 5 6 3 2 -4
-11 -19 9 -16 25 4 12 15 12 16 -1 8 -8 -4 5 10 30 31 24 21 48 38 52 37 4 -2
7 0 6 5 -2 4 8 24 21 46 21 33 25 36 33 21 6 -9 8 -25 5 -36z m-707 -259 c-13
-69 -58 -165 -116 -248 l-47 -64 -181 6 c-99 4 -193 9 -208 12 l-28 6 0 -67 0
-67 -32 6 c-18 4 -50 9 -70 13 -21 3 -38 9 -38 14 0 5 -6 6 -14 3 -7 -3 -25 9
-41 28 -15 18 -34 35 -42 38 -12 5 56 77 157 167 l25 22 50 -24 c134 -66 306
-30 436 92 26 24 50 40 53 35 3 -6 0 -12 -8 -15 -12 -5 -31 -60 -27 -80 2 -12
-26 -37 -33 -30 -3 4 -6 0 -6 -8 0 -17 -68 -94 -90 -102 -9 -3 -5 -6 10 -6 56
-2 122 65 190 191 27 50 40 105 51 218 1 8 5 -7 10 -35 5 -30 5 -72 -1 -105z
m-1602 -47 c130 -131 312 -176 450 -111 26 12 50 22 54 22 3 1 33 -24 65 -54
32 -30 75 -70 96 -88 21 -17 34 -32 29 -32 -5 0 -20 -16 -33 -35 -16 -23 -32
-35 -47 -35 -13 0 -21 -4 -18 -9 3 -5 -11 -11 -32 -14 -20 -4 -51 -9 -69 -13
l-32 -6 -3 63 c-2 52 -6 64 -20 63 -9 -1 -104 -5 -211 -9 l-194 -7 -48 63
c-92 123 -140 261 -116 340 l12 40 30 -60 c17 -34 56 -87 87 -118z m2097 139
c-3 -3 -11 0 -18 7 -9 10 -8 11 6 5 10 -3 15 -9 12 -12z m-2765 -22 c0 -5 -7
-10 -16 -10 -8 0 -12 5 -9 10 3 6 10 10 16 10 5 0 9 -4 9 -10z m2627 -30 c-4
-17 -2 -20 16 -16 12 3 16 3 10 0 -22 -10 -14 -26 10 -19 21 6 21 6 3 -9 -18
-15 -21 -14 -39 5 -10 11 -16 27 -13 35 3 7 1 14 -4 14 -6 0 -10 -4 -10 -9 0
-5 -11 -12 -24 -15 -39 -10 -82 -61 -96 -113 -10 -36 -15 -42 -17 -25 -5 27
-20 29 -28 2 -4 -14 -15 -20 -36 -20 -16 0 -29 3 -29 7 0 7 51 143 56 151 2 4
46 9 122 16 23 2 45 6 49 10 15 15 35 5 30 -14z m148 10 c3 -5 1 -10 -4 -10
-6 0 -11 5 -11 10 0 6 2 10 4 10 3 0 8 -4 11 -10z m-2585 -14 c0 -2 -7 -7 -16
-10 -8 -3 -12 -2 -9 4 6 10 25 14 25 6z m116 -4 c-2 -4 13 -6 33 -4 l38 4 27
-66 c14 -37 26 -70 26 -74 0 -4 -15 -8 -33 -9 -28 0 -36 4 -44 26 l-11 26 -2
-30 -2 -30 -10 30 c-5 17 -12 37 -15 45 -4 8 -7 18 -7 22 -1 4 -17 19 -36 34
-19 15 -28 24 -19 21 9 -3 22 -1 30 4 17 11 32 12 25 1z m-47 -78 c45 -58 20
-153 -49 -189 l-28 -15 -7 60 c-8 65 -1 113 21 148 19 29 38 28 63 -4z m2351
4 c17 -19 20 -35 20 -115 0 -51 -3 -93 -7 -93 -5 0 -22 9 -40 20 -61 37 -81
116 -43 178 23 38 41 40 70 10z m-2479 -108 c-1 -52 -4 -96 -6 -99 -2 -2 -15
-1 -28 3 -35 8 -85 58 -93 91 -14 54 39 108 100 103 l29 -3 -2 -95z m2638 75
c16 -14 33 -34 36 -45 12 -38 -43 -106 -101 -124 -20 -6 -21 -2 -27 85 -4 50
-4 95 -1 100 11 18 63 9 93 -16z m-1339 -342 c7 -16 53 -120 102 -233 49 -113
93 -209 97 -213 8 -8 69 127 152 340 l44 112 119 1 c108 0 118 -1 113 -17 -3
-10 -36 -101 -73 -203 -36 -102 -69 -196 -71 -208 -4 -18 -8 -21 -15 -10 -7 9
-8 6 -5 -10 7 -32 -34 -146 -46 -129 -6 8 -7 5 -4 -10 3 -13 -1 -24 -10 -27
-10 -4 -14 -15 -11 -31 3 -13 2 -22 -2 -20 -9 5 -7 9 -56 -125 -41 -111 -67
-174 -87 -213 l-15 -28 -63 123 c-34 68 -93 190 -130 272 -61 135 -69 147 -78
125 -5 -13 -45 -104 -89 -202 -86 -190 -142 -299 -158 -304 -9 -3 -40 70 -120
277 -20 52 -43 101 -52 108 -9 6 -13 12 -9 12 4 0 1 10 -7 23 -8 12 -42 103
-76 202 -34 99 -80 227 -101 284 -21 57 -39 105 -39 108 0 2 55 2 121 1 l121
-3 84 -205 c46 -113 89 -216 95 -230 l11 -25 15 29 c8 15 43 92 78 170 80 180
133 286 144 286 4 0 14 -12 21 -27z m-992 -31 c105 -36 158 -69 219 -135 204
-222 116 -616 -169 -750 -105 -50 -140 -55 -381 -63 l-217 -7 0 497 0 498 228
-4 c226 -3 227 -4 320 -36z m2474 -69 c2 -60 1 -111 -2 -115 -3 -4 -123 -8
-268 -8 -304 -1 -275 12 -270 -125 l3 -80 208 -3 207 -2 0 -95 0 -95 -204 0
-203 0 -7 -46 c-3 -26 -6 -107 -6 -181 l0 -134 -112 3 -113 3 -3 493 -2 492
384 0 384 0 4 -107z m753 -39 c-34 -138 -90 -294 -155 -431 -216 -458 -526
-792 -957 -1032 -625 -348 -1348 -395 -2016 -130 -464 184 -858 510 -1109 916
-137 221 -247 485 -293 702 -24 116 -18 106 40 -69 126 -377 340 -721 608
-976 560 -535 1395 -759 2162 -582 223 51 548 186 735 304 367 233 648 560
853 996 43 92 123 310 139 380 7 28 14 46 16 40 1 -5 -9 -59 -23 -118z m-2863
-1033 c121 -41 293 -78 427 -92 252 -26 587 11 786 87 7 3 24 -14 38 -39 30
-51 47 -57 166 -57 l76 -1 38 -56 c21 -30 37 -57 35 -58 -12 -12 -192 -84
-292 -116 -441 -144 -913 -142 -1359 5 -151 50 -277 109 -277 131 0 8 8 23 18
33 9 10 34 43 55 75 40 61 46 64 80 43 18 -11 226 -89 274 -102 8 -2 5 -22
-13 -65 -15 -39 -21 -66 -15 -72 18 -18 36 0 55 54 10 30 22 58 26 62 4 5 43
-1 86 -12 120 -31 219 -41 412 -41 179 1 316 12 336 29 6 5 32 12 58 16 46 7
48 6 58 -21 29 -82 42 -102 61 -97 10 3 19 7 19 10 0 2 -14 38 -31 80 -31 74
-32 75 -63 68 -179 -37 -206 -40 -446 -40 -217 1 -257 3 -350 23 -193 42 -400
112 -400 137 0 11 36 43 51 44 3 1 44 -12 91 -28z m-882 -13 c0 -5 5 -6 10 -3
6 3 10 4 10 1 0 -15 -20 -13 -36 5 -16 18 -16 19 -1 13 9 -3 17 -10 17 -16z
m409 -74 c18 -8 49 -14 67 -14 32 0 34 -2 34 -34 0 -65 -6 -68 -63 -39 -54 27
-177 102 -177 108 0 8 108 -9 139 -21z"/>
<path d="M1050 770 c-11 -7 -11 -10 -2 -10 8 0 10 -5 6 -12 -4 -7 -3 -9 1 -5
7 6 17 37 12 37 -1 0 -9 -5 -17 -10z"/>
<path d="M2930 4245 c0 -14 4 -25 9 -25 4 0 6 11 3 25 -2 14 -6 25 -8 25 -2 0
-4 -11 -4 -25z"/>
<path d="M3284 4255 c10 -8 24 -16 29 -18 13 -4 -17 -90 -38 -107 -10 -8 -30
-3 -85 25 -40 20 -79 34 -87 31 -8 -3 -11 -2 -8 4 3 5 -3 9 -12 9 -10 0 -36 2
-58 5 -22 3 -33 2 -25 -1 8 -3 72 -29 142 -59 70 -30 131 -54 137 -54 10 0 81
114 81 130 0 10 -72 50 -87 50 -4 0 1 -7 11 -15z"/>
<path d="M1478 4229 c-15 -8 -13 -16 24 -74 46 -74 49 -77 67 -65 11 6 6 22
-22 73 -20 35 -34 67 -30 71 10 10 -20 6 -39 -5z"/>
<path d="M530 3224 c-6 -14 -10 -27 -10 -29 0 -1 16 -6 35 -9 42 -8 48 -17 34
-52 -10 -27 -8 -31 17 -37 7 -2 34 78 34 101 0 10 -77 52 -96 52 -3 0 -9 -12
-14 -26z"/>
<path d="M4247 3228 c-46 -20 -48 -23 -43 -51 16 -78 54 -106 48 -34 -3 38 2
42 56 40 15 -1 15 15 -1 44 l-12 22 -48 -21z"/>
<path d="M453 2824 c5 -5 23 -14 40 -20 28 -9 32 -16 35 -52 2 -23 7 -42 11
-42 8 0 22 101 15 109 -2 2 -27 6 -56 9 -30 2 -49 1 -45 -4z"/>
<path d="M4286 2822 c-6 -11 9 -130 18 -139 4 -5 6 19 5 52 l-3 60 51 10 c76
15 75 25 0 25 -36 0 -68 -3 -71 -8z"/>
<path d="M397 2689 c7 -7 15 -10 18 -7 3 3 -2 9 -12 12 -14 6 -15 5 -6 -5z"/>
<path d="M4400 2680 c0 -5 4 -10 9 -10 6 0 13 5 16 10 3 6 -1 10 -9 10 -9 0
-16 -4 -16 -10z"/>
<path d="M390 2418 c0 -18 20 -140 26 -160 4 -14 14 -16 57 -11 l53 5 9 -53
c6 -29 16 -55 24 -57 11 -4 12 7 7 54 -13 108 -10 104 -66 89 -27 -7 -51 -10
-54 -7 -3 3 -6 29 -6 59 0 52 1 53 29 53 22 0 30 -5 33 -20 6 -38 23 -26 26
18 l3 42 -70 0 c-50 0 -71 -4 -71 -12z"/>
<path d="M4310 2401 c0 -16 -3 -36 -6 -45 -4 -11 -1 -16 10 -16 8 0 18 11 22
25 5 19 13 25 35 25 27 0 29 -3 29 -37 0 -21 -3 -48 -6 -60 -5 -18 -10 -20
-31 -12 -29 11 -70 12 -76 2 -3 -5 -8 -39 -12 -77 -5 -55 -4 -67 7 -64 7 3 18
27 24 54 l10 49 48 0 c57 0 61 6 72 114 l7 71 -67 0 -66 0 0 -29z"/>
<path d="M712 1539 c-32 -19 -50 -35 -44 -41 11 -11 102 39 102 58 0 18 4 19
-58 -17z"/>
<path d="M4077 1563 c-10 -10 -8 -23 3 -23 6 0 28 -12 50 -26 21 -14 44 -23
50 -19 12 7 6 13 -61 53 -20 12 -39 19 -42 15z"/>
<path d="M1135 3480 c-3 -6 1 -7 9 -4 18 7 21 14 7 14 -6 0 -13 -4 -16 -10z"/>
<path d="M2125 3664 c-33 -16 -64 -52 -65 -71 0 -7 9 -22 20 -33 17 -17 33
-20 108 -20 77 0 91 3 107 20 25 28 11 67 -34 97 -40 27 -93 30 -136 7z m105
-39 c17 -9 30 -20 30 -24 0 -8 -138 -21 -149 -14 -7 5 23 35 44 43 30 13 43
12 75 -5z"/>
<path d="M2574 3646 c-37 -37 -43 -66 -18 -90 22 -22 170 -22 202 0 59 41 -13
124 -108 124 -34 0 -48 -6 -76 -34z m126 -21 c48 -25 35 -35 -40 -35 -73 0
-85 8 -48 34 28 20 51 20 88 1z"/>
<path d="M2144 3504 c-60 -30 -73 -107 -25 -155 50 -50 121 -36 147 28 36 85
-42 167 -122 127z"/>
<path d="M2624 3504 c-48 -24 -67 -80 -43 -127 32 -63 102 -75 150 -28 48 49
35 126 -26 156 -40 18 -42 18 -81 -1z"/>
<path d="M1410 3480 c-8 -5 -10 -10 -5 -10 6 0 17 5 25 10 8 5 11 10 5 10 -5
0 -17 -5 -25 -10z"/>
<path d="M953 2609 c3 -9 -3 -20 -14 -27 -10 -7 -19 -17 -19 -22 0 -6 12 1 27
14 23 21 25 28 14 38 -11 11 -13 10 -8 -3z"/>
<path d="M900 2579 c0 -5 5 -7 10 -4 6 3 10 8 10 11 0 2 -4 4 -10 4 -5 0 -10
-5 -10 -11z"/>
<path d="M3962 2570 c0 -14 2 -19 5 -12 2 6 2 18 0 25 -3 6 -5 1 -5 -13z"/>
<path d="M3868 2573 c6 -2 18 -2 25 0 6 3 1 5 -13 5 -14 0 -19 -2 -12 -5z"/>
<path d="M3865 2530 c-3 -5 -3 -10 2 -10 4 0 1 -5 -7 -10 -12 -8 -11 -10 7
-10 12 0 25 5 29 12 5 7 3 8 -6 3 -10 -6 -12 -4 -7 8 7 18 -8 24 -18 7z"/>
<path d="M3948 2353 c5 -21 7 -23 10 -9 2 10 0 22 -6 28 -6 6 -7 0 -4 -19z"/>
<path d="M3018 2153 c7 -3 16 -2 19 1 4 3 -2 6 -13 5 -11 0 -14 -3 -6 -6z"/>
<path d="M1587 2454 c12 -75 104 -224 139 -224 12 0 12 4 -3 24 -10 13 -21 22
-26 19 -4 -2 -10 4 -14 14 -3 10 -15 28 -27 41 -20 22 -20 23 -1 17 17 -5 17
-4 -2 11 -23 17 -33 41 -11 28 7 -4 8 -3 4 5 -4 6 -11 9 -15 6 -5 -2 -13 7
-20 21 -14 32 -14 37 2 28 6 -4 3 3 -8 17 -11 13 -21 26 -22 28 -1 2 1 -14 4
-35z"/>
<path d="M1620 2419 c0 -5 5 -7 10 -4 6 3 10 8 10 11 0 2 -4 4 -10 4 -5 0 -10
-5 -10 -11z"/>
<path d="M2876 1495 c-9 -26 -7 -32 5 -12 6 10 9 21 6 23 -2 3 -7 -2 -11 -11z"/>
<path d="M1158 1573 c-3 -126 -3 -254 0 -287 l5 -58 86 4 c62 3 98 10 128 26
133 69 198 211 159 345 -13 44 -27 65 -72 106 -31 28 -67 54 -80 57 -13 3 -24
9 -24 13 0 4 -37 8 -82 9 -46 2 -90 5 -99 8 -14 4 -17 -21 -21 -223z"/>
<path d="M1421 1757 c2 -1 13 -9 24 -17 19 -14 19 -14 6 3 -7 9 -18 17 -24 17
-6 0 -8 -1 -6 -3z"/>
</g>
</svg>
